<svg width="18" height="18" viewBox="0 0 18 18" fill="none" xmlns="http://www.w3.org/2000/svg">
<path d="M9.01621 0.0673828C4.0555 0.0673828 0.0328751 4.15785 0.0328751 9.20409C0.0328751 13.241 2.60687 16.6659 6.17623 17.874C6.62519 17.9586 6.79001 17.6758 6.79001 17.4345C6.79001 17.2166 6.78168 16.4969 6.77782 15.7334C4.27864 16.2861 3.75129 14.6554 3.75129 14.6554C3.34264 13.5993 2.75385 13.3185 2.75385 13.3185C1.93879 12.7514 2.81529 12.763 2.81529 12.763C3.71737 12.8273 4.19236 13.7046 4.19236 13.7046C4.99359 15.1014 6.2939 14.6976 6.80653 14.4641C6.88716 13.8737 7.11997 13.4704 7.37687 13.2424C5.38155 13.0113 3.28403 12.2279 3.28403 8.72688C3.28403 7.72934 3.63496 6.91428 4.20962 6.27442C4.11635 6.04414 3.80886 5.11499 4.29664 3.85645C4.29664 3.85645 5.05101 3.61089 6.7677 4.79302C7.48428 4.59057 8.25278 4.48905 9.01621 4.48557C9.77965 4.48905 10.5487 4.59057 11.2667 4.79302C12.9813 3.61089 13.7346 3.85645 13.7346 3.85645C14.2236 5.11499 13.9159 6.04414 13.8227 6.27442C14.3987 6.91428 14.7472 7.72934 14.7472 8.72688C14.7472 12.2362 12.6457 13.0089 10.6453 13.2351C10.9675 13.5186 11.2546 14.0747 11.2546 14.9271C11.2546 16.1495 11.2442 17.1334 11.2442 17.4345C11.2442 17.6776 11.4059 17.9625 11.8613 17.8728C15.4287 16.6633 17.9994 13.2396 17.9994 9.20409C17.9994 4.15785 13.9774 0.0673828 9.01621 0.0673828Z" fill="white"/>
<path d="M3.43532 13.1857C3.41553 13.2312 3.34532 13.2447 3.28135 13.2135C3.21619 13.1837 3.1796 13.1218 3.20072 13.0763C3.22006 13.0295 3.29043 13.0167 3.35543 13.0477C3.42074 13.0776 3.45793 13.1401 3.43532 13.1857Z" fill="white"/>
<path d="M3.79919 13.5986C3.75635 13.639 3.67259 13.6202 3.61577 13.5563C3.55701 13.4927 3.546 13.4075 3.58944 13.3665C3.63362 13.3261 3.71484 13.345 3.77375 13.4087C3.83251 13.4731 3.84397 13.5577 3.79919 13.5986Z" fill="white"/>
<path d="M4.15339 14.1248C4.09835 14.1637 4.00835 14.1272 3.95271 14.046C3.89767 13.9647 3.89767 13.8673 3.9539 13.8282C4.00968 13.7892 4.09835 13.8243 4.15473 13.9049C4.20962 13.9874 4.20962 14.085 4.15339 14.1248Z" fill="white"/>
<path d="M4.63864 14.6331C4.58941 14.6883 4.48453 14.6735 4.40777 14.5982C4.32922 14.5245 4.30736 14.4199 4.35674 14.3647C4.40658 14.3093 4.51205 14.3249 4.58941 14.3996C4.66736 14.4732 4.69116 14.5785 4.63864 14.6331Z" fill="white"/>
<path d="M5.30807 14.9283C5.28635 14.9999 5.18534 15.0324 5.08359 15.002C4.98199 14.9707 4.91549 14.8869 4.93602 14.8145C4.95714 14.7425 5.0586 14.7086 5.16109 14.7412C5.26255 14.7723 5.32919 14.8555 5.30807 14.9283Z" fill="white"/>
<path d="M6.04324 14.9832C6.04577 15.0586 5.95948 15.121 5.85267 15.1223C5.74527 15.1248 5.65839 15.0638 5.6572 14.9897C5.6572 14.9136 5.74155 14.8517 5.84896 14.8499C5.95577 14.8478 6.04324 14.9083 6.04324 14.9832Z" fill="white"/>
<path d="M6.72739 14.8647C6.74018 14.9383 6.66595 15.0138 6.55989 15.0337C6.4556 15.0532 6.35906 15.0079 6.34582 14.9349C6.33288 14.8596 6.40845 14.7841 6.51258 14.7646C6.61879 14.7458 6.71385 14.79 6.72739 14.8647Z" fill="white"/>
</svg>
