<svg width="3059" height="2729" viewBox="0 0 3059 2729" fill="none" xmlns="http://www.w3.org/2000/svg">
<g filter="url(#filter0_dddf_2_121)">
<path d="M375.158 597.628L375 597.688L379.191 608.606L545.593 1042.11L628.795 1258.87L711.996 1475.62L795.197 1692.38L878.399 1909.13L1044.8 2342.64L1048.99 2353.56L1049.15 2353.5C1047.65 2349.9 1046.2 2346.29 1044.8 2342.64C864.502 1872.93 1594.54 1153.88 2683.47 719.357L2683.14 718.514C1583.15 1124.21 559.49 1078.32 379.191 608.606C377.792 604.961 376.448 601.302 375.158 597.628Z" fill="url(#paint0_radial_2_121)"/>
<path d="M375.158 597.628L375 597.688L379.191 608.606L545.593 1042.11L628.795 1258.87L711.996 1475.62L795.197 1692.38L878.399 1909.13L1044.8 2342.64L1048.99 2353.56L1049.15 2353.5C1047.65 2349.9 1046.2 2346.29 1044.8 2342.64C864.502 1872.93 1594.54 1153.88 2683.47 719.357L2683.14 718.514C1583.15 1124.21 559.49 1078.32 379.191 608.606C377.792 604.961 376.448 601.302 375.158 597.628Z" fill="url(#paint1_radial_2_121)"/>
<path d="M375.158 597.628L375 597.688L379.191 608.606L545.593 1042.11L628.795 1258.87L711.996 1475.62L795.197 1692.38L878.399 1909.13L1044.8 2342.64L1048.99 2353.56L1049.15 2353.5C1047.65 2349.9 1046.2 2346.29 1044.8 2342.64C864.502 1872.93 1594.54 1153.88 2683.47 719.357L2683.14 718.514C1583.15 1124.21 559.49 1078.32 379.191 608.606C377.792 604.961 376.448 601.302 375.158 597.628Z" fill="url(#paint2_linear_2_121)"/>
<path d="M1186.23 992.886C1593.83 1011.97 2111.7 926.025 2649.72 731.829C2119.94 947.505 1677.58 1230.15 1387.44 1517.06C1239.33 1663.51 1130.85 1811.12 1070.68 1951.53C1017.09 2076.59 1001.8 2196 1031.02 2303.81L879.379 1908.76L796.177 1692L712.976 1475.25L629.775 1258.49L546.574 1041.74L394.93 646.681C445.352 746.353 536.616 824.862 660.12 881.942C798.792 946.034 978.172 983.145 1186.23 992.886Z" stroke="white" stroke-opacity="0.1" stroke-width="2.1"/>
</g>
<defs>
<filter id="filter0_dddf_2_121" x="3.05176e-05" y="0.627609" width="3058.47" height="2727.93" filterUnits="userSpaceOnUse" color-interpolation-filters="sRGB">
<feFlood flood-opacity="0" result="BackgroundImageFix"/>
<feColorMatrix in="SourceAlpha" type="matrix" values="0 0 0 0 0 0 0 0 0 0 0 0 0 0 0 0 0 0 127 0" result="hardAlpha"/>
<feOffset/>
<feGaussianBlur stdDeviation="187.5"/>
<feComposite in2="hardAlpha" operator="out"/>
<feColorMatrix type="matrix" values="0 0 0 0 1 0 0 0 0 0.333333 0 0 0 0 0.973333 0 0 0 1 0"/>
<feBlend mode="normal" in2="BackgroundImageFix" result="effect1_dropShadow_2_121"/>
<feColorMatrix in="SourceAlpha" type="matrix" values="0 0 0 0 0 0 0 0 0 0 0 0 0 0 0 0 0 0 127 0" result="hardAlpha"/>
<feOffset dy="-222"/>
<feGaussianBlur stdDeviation="187.5"/>
<feComposite in2="hardAlpha" operator="out"/>
<feColorMatrix type="matrix" values="0 0 0 0 1 0 0 0 0 0 0 0 0 0 0.24 0 0 0 1 0"/>
<feBlend mode="normal" in2="effect1_dropShadow_2_121" result="effect2_dropShadow_2_121"/>
<feColorMatrix in="SourceAlpha" type="matrix" values="0 0 0 0 0 0 0 0 0 0 0 0 0 0 0 0 0 0 127 0" result="hardAlpha"/>
<feOffset dy="4"/>
<feGaussianBlur stdDeviation="2"/>
<feComposite in2="hardAlpha" operator="out"/>
<feColorMatrix type="matrix" values="0 0 0 0 0 0 0 0 0 0 0 0 0 0 0 0 0 0 0.25 0"/>
<feBlend mode="normal" in2="effect2_dropShadow_2_121" result="effect3_dropShadow_2_121"/>
<feBlend mode="normal" in="SourceGraphic" in2="effect3_dropShadow_2_121" result="shape"/>
<feGaussianBlur stdDeviation="100" result="effect4_foregroundBlur_2_121"/>
</filter>
<radialGradient id="paint0_radial_2_121" cx="0" cy="0" r="1" gradientUnits="userSpaceOnUse" gradientTransform="translate(711.996 1475.62) rotate(-20.9993) scale(2111.55 2457.53)">
<stop stop-color="#810000"/>
<stop offset="0.484375" stop-color="#750404"/>
<stop offset="1" stop-color="#680909"/>
</radialGradient>
<radialGradient id="paint1_radial_2_121" cx="0" cy="0" r="1" gradientUnits="userSpaceOnUse" gradientTransform="translate(711.996 1475.62) rotate(69.0007) scale(445.608 1327.06)">
<stop stop-color="#FFB5B5"/>
<stop offset="0.65625" stop-color="#FF5F5F" stop-opacity="0.494792"/>
<stop offset="1" stop-color="#FF1414" stop-opacity="0"/>
</radialGradient>
<linearGradient id="paint2_linear_2_121" x1="2683.45" y1="719.316" x2="882.514" y2="1410.61" gradientUnits="userSpaceOnUse">
<stop stop-color="#FFA6A6"/>
<stop offset="0.6875" stop-color="#FFBBBB" stop-opacity="0.71"/>
<stop offset="1" stop-color="#FFA6A6" stop-opacity="0"/>
</linearGradient>
</defs>
</svg>
