<svg width="29" height="40" viewBox="0 0 29 40" fill="none" xmlns="http://www.w3.org/2000/svg">
<path d="M14.433 0C15.2455 1.02948 15.9207 2.08018 16.4126 3.24613C17.123 4.92964 17.1907 6.65629 16.6713 8.39072C16.4839 9.01767 16.2421 9.62828 16.0003 10.2392C15.8829 10.5356 15.7655 10.8321 15.6543 11.1306C15.5867 11.3116 15.4774 11.3667 15.2815 11.3632C14.9762 11.3577 14.6708 11.3616 14.3653 11.3655C14.0846 11.369 13.8038 11.3726 13.5231 11.3689C13.4315 11.3675 13.2919 11.2953 13.2574 11.219C12.6224 9.78575 12.0558 8.32991 11.9261 6.74538C11.7703 4.8448 12.3722 3.15067 13.3596 1.57039C13.5836 1.21182 13.8273 0.865151 14.0789 0.507344C14.1953 0.341646 14.3136 0.173468 14.4323 0.000707063L14.433 0Z" fill="white"/>
<path fill-rule="evenodd" clip-rule="evenodd" d="M14.4555 21.4714C15.249 19.4464 16.937 18.226 19.0125 17.567C20.9767 16.9434 23.3835 18.2769 23.9811 20.1796C24.0812 20.4992 24.1058 20.8859 24.0304 21.2098C23.764 22.3573 23.3954 23.4759 22.7837 24.4941C22.2199 25.4324 21.4503 26.0857 20.336 26.2844C19.6094 26.4145 18.942 26.7008 18.3993 27.2241C17.9779 27.6299 17.8327 28.1128 18.0329 28.7732C18.3585 27.8936 18.9596 27.4425 19.7715 27.2417C20.2677 27.1187 20.7434 27.1413 21.2135 27.3584C21.5856 27.5302 21.9612 27.6992 22.3489 27.8293C22.8507 27.9983 23.3116 27.8802 23.6618 27.4814C24.0128 27.0826 24.0776 26.6238 23.8211 26.1394C23.4539 25.4451 23.5202 24.7578 23.8542 24.0698C23.954 24.2694 24.0551 24.4679 24.156 24.6661C24.3829 25.1116 24.6091 25.5557 24.8184 26.0079C25.1947 26.8203 25.0502 27.5839 24.4716 28.2394C23.8556 28.9366 23.0832 29.2957 22.1424 29.0334C21.8667 28.9566 21.6002 28.8484 21.3336 28.7401C21.1216 28.654 20.9096 28.5679 20.6927 28.4975C20.0386 28.2861 19.4248 28.5993 19.2888 29.2279C19.2536 29.3904 19.2866 29.5693 19.3193 29.7465C19.3318 29.8144 19.3443 29.882 19.3529 29.9484C19.3726 30.0986 19.3976 30.2486 19.4225 30.3985C19.4727 30.6995 19.5227 31.0001 19.5298 31.3017C19.5404 31.774 19.2606 32.1325 18.9343 32.4167C18.7857 32.0108 18.6384 31.608 18.4918 31.2067L18.4886 31.198C18.3602 30.8467 18.2322 30.4965 18.1041 30.1463H17.9871C17.9673 30.9941 17.8207 31.7804 17.011 32.3008C16.9574 31.3696 16.6917 30.5522 16.0546 29.807C16.0316 29.9787 16.0153 30.1503 15.9992 30.3206C15.9333 31.0163 15.8695 31.6903 15.3555 32.264C14.8855 31.5864 14.6847 30.8636 14.4617 30.0608L14.4615 30.0602C14.4428 29.9928 14.4239 29.9249 14.4047 29.8564C14.3434 30.0777 14.293 30.2962 14.2435 30.5108C14.0981 31.1413 13.9606 31.7377 13.5752 32.2668C12.886 31.5774 12.733 30.7099 12.6463 29.7221C12.0811 30.5366 11.857 31.3689 11.7682 32.3036C10.9422 31.7245 10.8668 30.9418 10.9746 30.0771C10.506 30.8145 10.2255 31.6206 10.026 32.5101C9.50168 32.0568 9.298 31.5166 9.35368 30.8909C9.38328 30.5557 9.47349 30.2199 9.5778 29.8982C9.71734 29.4676 9.68774 29.0886 9.36637 28.7534C9.03301 28.407 8.62918 28.3561 8.19928 28.5045C7.99895 28.5737 7.80251 28.6544 7.60606 28.7351C7.40097 28.8194 7.19588 28.9036 6.98637 28.9747C5.70229 29.4117 4.23779 28.5703 3.93685 27.2431C3.82902 26.7687 3.92346 26.3303 4.13207 25.9096C4.35103 25.4683 4.57607 25.0298 4.80082 24.5918C4.89144 24.4153 4.98212 24.2386 5.07223 24.0621C5.36541 24.7013 5.45985 25.3779 5.1272 26.044C4.85023 26.5983 4.87137 27.094 5.30128 27.5345C5.72202 27.9658 6.23721 27.9728 6.7693 27.7678L6.82245 27.7474C7.02371 27.6701 7.22687 27.5922 7.41276 27.485C8.69332 26.7454 10.3467 27.3584 10.8189 28.7039C11.0423 28.3136 10.962 27.7756 10.6117 27.3612C10.1353 26.7977 9.50732 26.4647 8.80255 26.3452C7.33594 26.097 6.40142 25.2068 5.83338 23.9086C5.44364 23.0184 5.11733 22.0915 4.85446 21.1553C4.61554 20.3033 5.07293 19.6033 5.57473 18.962C6.43031 17.8682 8.85682 16.9228 10.5934 17.765C11.8013 18.3504 12.9177 19.0638 13.7331 20.1506C13.9552 20.4464 14.1194 20.7861 14.2691 21.0961C14.3327 21.2278 14.3937 21.354 14.4555 21.4693V21.4714ZM19.4671 25.0018C20.0936 25.0159 20.644 24.8101 21.131 24.4269C21.8816 23.8358 22.32 23.0404 22.5624 22.1339C23.0268 20.3981 22.2086 19.1282 20.4389 18.8114C19.078 18.5675 17.3267 19.4068 16.4873 20.7042C15.6846 21.9458 15.9559 23.4031 17.1597 24.2537C17.8496 24.7416 18.6277 24.9721 19.4671 25.001V25.0018ZM9.4312 24.9989C10.2516 24.9897 11.0064 24.7522 11.6731 24.2813C12.5399 23.6696 12.9734 22.8219 12.7922 21.7542C12.4307 19.6245 9.66871 18.1715 7.68761 19.0419C6.58888 19.5248 6.06102 20.3846 6.22241 21.5753C6.37886 22.7342 6.89828 23.7206 7.83139 24.4545C8.29794 24.8214 8.83286 25.0081 9.4312 24.9975V24.9989ZM14.4217 23.3911C14.0693 23.0651 14.0157 23.0538 13.743 23.4455L13.667 23.5547C13.1149 24.3485 12.5619 25.1435 12.0586 25.9683C11.542 26.8147 12.2552 28.2549 13.2278 28.4169C13.7613 28.5053 14.1426 28.2656 14.4449 27.8222C14.6831 28.2309 15.0038 28.4416 15.4429 28.4331C16.4507 28.4126 17.369 26.9702 16.8686 26.0899C16.3826 25.2347 15.8086 24.4283 15.2365 23.6245L15.2358 23.6235C15.181 23.5465 15.1262 23.4695 15.0714 23.3925C14.805 23.0177 14.7621 23.0446 14.4217 23.3918V23.3911Z" fill="white"/>
<path d="M22.4451 36.1826C20.991 37.3385 19.544 38.4888 18.4391 39.9997C15.7808 38.3525 13.1487 38.405 10.4715 39.9809C9.25725 38.3315 7.63884 37.082 5.99798 35.8153L5.94897 35.7774C7.17738 33.956 7.54879 32.0547 6.40284 30.017C6.51499 29.9957 6.6222 29.9743 6.72591 29.9536C6.99758 29.8993 7.24531 29.8499 7.49523 29.8197C7.56711 29.8112 7.69538 29.9208 7.73062 30.0042C8.42059 31.6489 8.43891 33.2921 7.713 34.9353C7.49578 35.4272 7.5121 35.4416 7.87826 35.7649C7.90057 35.7846 7.92417 35.8055 7.9491 35.8276C8.86177 36.6386 9.75894 37.4666 10.6448 38.3066C10.8009 38.4541 10.9016 38.4081 11.0356 38.347L11.0534 38.3389L11.0719 38.3306C13.1524 37.403 15.2646 37.3082 17.3979 38.1291L17.4164 38.1362C17.7542 38.2664 17.9198 38.3302 18.0664 38.3006C18.2073 38.2721 18.3307 38.1575 18.5727 37.9327L18.627 37.8823C19.4368 37.1322 20.2712 36.4081 21.1212 35.7039C21.3516 35.513 21.3685 35.3892 21.2628 35.1262C21.057 34.6157 20.8914 34.0861 20.7427 33.5551C20.3939 32.3079 20.7145 31.132 21.1719 29.9795C21.2029 29.9003 21.3425 29.8049 21.42 29.8148C21.6629 29.8451 21.9039 29.8941 22.1754 29.9493C22.2771 29.97 22.3835 29.9917 22.4955 30.0134C21.3375 32.0498 21.6716 33.949 22.9571 35.7746C22.7867 35.9111 22.6159 36.0469 22.4451 36.1826Z" fill="white"/>
<path d="M23.9226 18.1022C22.9261 17.3683 21.8471 16.8168 20.6165 16.616C19.7151 16.4689 18.8405 16.5495 18.016 16.983C17.9196 17.0337 17.8235 17.0851 17.7274 17.1365C17.3573 17.3344 16.987 17.5325 16.6015 17.6936C15.5486 18.1341 14.9946 17.7303 15.1053 16.5955C15.2011 15.6098 15.5465 14.7013 16.0708 13.8599C16.5402 13.1061 17.2294 12.8778 18.0463 13.0701C20.2219 13.5813 21.988 14.738 23.2735 16.5799C23.4849 16.8829 23.6397 17.2254 23.7946 17.5681C23.8664 17.7269 23.9382 17.8858 24.0156 18.0407L23.9226 18.1022Z" fill="white"/>
<path d="M6.21889 15.8545C5.65437 16.4739 5.20684 17.1717 5.00458 18.0358L5.00528 18.0351C5.02825 18.0308 5.04425 18.0285 5.05574 18.0268C5.07278 18.0243 5.07986 18.0233 5.08492 18.0195C5.10998 18.002 5.13451 17.9838 5.15903 17.9655C5.19104 17.9417 5.22306 17.9178 5.25618 17.8958C7.32185 16.5418 9.44178 15.9485 11.7252 17.4051C12.0078 17.5854 12.3327 17.7169 12.6555 17.8138C13.3814 18.0322 13.8339 17.6865 13.8247 16.9229C13.8113 15.8481 13.4533 14.8695 12.9121 13.9589C12.4018 13.1005 11.8345 12.8594 10.8633 13.0892C9.0302 13.5226 7.48606 14.4644 6.21889 15.8545Z" fill="white"/>
<path d="M18.6482 11.9437L16.4669 11.441C16.5597 11.2854 16.6521 11.1299 16.7444 10.9745L16.7519 10.9618C16.9411 10.6434 17.13 10.3254 17.3211 10.0085C18.1633 8.61133 18.9181 7.16751 19.1288 5.52712C19.1985 4.98551 19.1794 4.43207 19.1604 3.879C19.1523 3.64362 19.1442 3.40831 19.1429 3.17402C19.1429 3.09485 19.1291 3.01603 19.115 2.93544L19.1149 2.93489C19.1086 2.89913 19.1023 2.86278 19.0971 2.82614C19.1147 2.82746 19.1304 2.8272 19.1435 2.82699C19.1657 2.82663 19.1809 2.82638 19.1866 2.83392C20.3065 4.19784 21.1134 5.69116 20.9288 7.52882C20.878 8.03083 20.7265 8.55759 20.4848 8.99739C20.108 9.68345 19.686 10.3448 19.2642 11.006L19.2639 11.0064C19.0972 11.2676 18.9304 11.529 18.7666 11.7917C18.7411 11.8326 18.7097 11.87 18.6819 11.9033C18.6697 11.9178 18.6582 11.9315 18.6482 11.9444V11.9437Z" fill="white"/>
<path d="M10.2346 11.9543C10.9817 11.7839 11.6766 11.6248 12.4208 11.4544L12.4194 11.4537C12.3825 11.3906 12.3465 11.3294 12.3112 11.2695C12.2279 11.1279 12.1487 10.9933 12.0719 10.8576C11.9045 10.5615 11.7341 10.2669 11.5637 9.97224L11.5634 9.97178C11.1688 9.28942 10.774 8.60671 10.4157 7.90566C9.83643 6.77153 9.50096 5.55962 9.59963 4.2657C9.62475 3.93806 9.67272 3.61175 9.7222 3.27516C9.7449 3.12074 9.76793 2.96408 9.78921 2.8042C9.76383 2.82701 9.73968 2.84738 9.71688 2.86661C9.67256 2.90398 9.63337 2.93702 9.60033 2.97531C9.00762 3.66964 8.51993 4.43256 8.21194 5.29377C7.68548 6.76375 7.73975 8.17788 8.67286 9.49655C8.84836 9.74426 9.00623 10.0041 9.16409 10.2639L9.16438 10.2643C9.24478 10.3966 9.3252 10.529 9.40793 10.6597C9.61549 10.9869 9.82421 11.313 10.0247 11.6262L10.2346 11.9543Z" fill="white"/>
<path d="M5.35486 5.01803L5.35499 5.01885C4.93312 5.60906 4.61124 6.29533 4.40977 7.03599C4.00947 8.50598 4.17931 9.89041 5.22871 11.0351C5.73408 11.5869 6.30312 12.0805 6.87161 12.5736C7.07601 12.7509 7.28057 12.9284 7.48185 13.1083C7.53611 13.157 7.68411 13.1556 7.75812 13.1181C8.2153 12.8858 8.66828 12.6446 9.12872 12.3995L9.12978 12.3989C9.26592 12.3265 9.40272 12.2536 9.54047 12.1806C9.22473 11.6977 8.80681 11.3321 8.23242 11.1447C8.04989 11.0853 7.84057 10.9948 7.72781 10.852L7.62482 10.7215C6.86378 9.75751 6.09343 8.78174 5.76504 7.57619C5.6084 7.00094 5.5342 6.40299 5.46032 5.80767C5.42754 5.54349 5.39482 5.27978 5.35499 5.01885L5.35557 5.01803H5.35486Z" fill="white"/>
<path d="M19.3691 12.1435L19.3684 12.1445V12.1431L19.3691 12.1435Z" fill="white"/>
<path d="M19.829 12.3908C19.6774 12.3091 19.5243 12.2266 19.3691 12.1435C19.6706 11.6936 20.0531 11.3638 20.5743 11.1695C20.8442 11.0691 21.1317 10.8888 21.3009 10.6618L21.3317 10.6204C22.0935 9.59807 22.8643 8.56364 23.1424 7.28415C23.2557 6.76431 23.3183 6.23371 23.3814 5.69908C23.4098 5.45853 23.4383 5.21716 23.4715 4.97559C23.4384 4.97771 23.4723 4.96782 23.4779 4.97559C24.1728 6.03831 24.6203 7.18375 24.6154 8.47485C24.6119 9.47252 24.27 10.3655 23.6047 11.079C23.1125 11.607 22.5684 12.0861 22.0246 12.565C21.8374 12.7298 21.6501 12.8948 21.4651 13.0616C21.4052 13.116 21.2621 13.1485 21.1959 13.1146C20.7416 12.8825 20.2921 12.6403 19.829 12.3908Z" fill="white"/>
<path d="M6.80802 13.5593C6.76564 13.5374 6.71568 13.5056 6.65965 13.47C6.50786 13.3734 6.31149 13.2484 6.10045 13.2143C5.75935 13.1592 5.54792 13.0078 5.36961 12.742C4.44989 11.3717 3.17708 10.7665 1.5378 10.9962C1.18397 11.0462 0.833132 11.1201 0.482319 11.194C0.321771 11.2278 0.16082 11.2617 0 11.2932C1.22911 11.6955 2.25384 12.3347 3.11577 13.2334C3.42972 13.5609 3.72218 13.9088 4.01465 14.2567C4.10035 14.3586 4.18605 14.4605 4.27229 14.562C4.47403 14.7991 4.66989 15.0414 4.81258 15.218C4.86125 15.2782 4.90388 15.3309 4.93829 15.373C5.26214 15.0587 5.58103 14.7494 5.9029 14.4373L5.91605 14.4245C6.20885 14.1406 6.50418 13.8541 6.80802 13.5593Z" fill="white"/>
<path d="M24.2158 15.1018C25.4032 13.5508 26.6739 11.891 28.8926 11.3781H28.8919L28.8602 11.2918C28.7651 11.2699 28.67 11.2475 28.5749 11.2251C28.3813 11.1794 28.1873 11.1336 27.9926 11.0924C26.1694 10.7063 24.6112 11.0578 23.5244 12.7151C23.5198 12.7221 23.5153 12.7293 23.5107 12.7366C23.4892 12.7705 23.4671 12.8055 23.4363 12.8247L23.3781 12.8615C23.1982 12.9752 23.0186 13.0887 22.8316 13.1895C22.6543 13.2853 22.4733 13.3737 22.2923 13.4621C22.21 13.5023 22.1278 13.5425 22.0458 13.5834L22.2361 13.5091L22.2601 13.534C22.8427 14.1359 23.4255 14.738 24.022 15.3546C24.0864 15.2708 24.151 15.1864 24.2158 15.1018Z" fill="white"/>
<path d="M4.62612 16.1415L3.81564 18.2161L3.7564 18.1816C2.62919 17.5261 1.47123 16.8527 0.0430298 17.1286C0.711148 15.9238 3.09537 15.4147 4.62542 16.1415H4.62612Z" fill="white"/>
<path d="M28.9137 17.1449C27.8982 15.8623 25.8297 15.4161 24.3405 16.1168C24.4857 16.5112 24.6285 16.8994 24.7692 17.2818L25.0911 18.1567C25.2657 18.0737 25.4415 17.9869 25.6191 17.8993C26.0357 17.6939 26.4617 17.4838 26.9009 17.3068C27.5275 17.0544 28.1928 16.9752 28.9137 17.1449Z" fill="white"/>
<path d="M15.0743 33.5997C15.4675 33.6951 15.6789 33.9249 15.8262 34.2091C16.1688 34.8702 16.2498 35.5483 15.8671 36.2243C15.7163 36.4901 15.4605 36.6711 15.1666 36.5665C14.9444 36.4872 14.7545 36.2935 14.5804 36.1158L14.5626 36.0977C14.5048 36.039 14.5041 35.8552 14.5513 35.7703C14.9185 35.1106 15.1229 34.4128 15.0743 33.5997Z" fill="white"/>
<path d="M14.2567 35.8C13.9107 35.1516 13.7408 34.4707 13.8402 33.7276H13.8395L13.816 33.7129L13.7923 33.6979C13.7766 33.688 13.7609 33.6781 13.7451 33.6682C13.6889 33.706 13.6294 33.7406 13.5699 33.7752C13.4399 33.851 13.3101 33.9266 13.2158 34.0338C12.7408 34.574 12.5878 35.2139 12.8169 35.899C12.893 36.126 13.0791 36.348 13.2729 36.4936C13.5019 36.6655 13.7923 36.6393 14.0157 36.4321L14.0222 36.4262C14.1997 36.2628 14.4036 36.0752 14.2567 35.8Z" fill="white"/>
<path d="M16.9243 33.681C17.4374 33.7432 17.7566 34.1087 17.949 34.5789C18.1407 35.0449 18.1379 35.5271 17.7968 35.945C17.6023 36.1825 17.2492 36.2412 16.9983 36.0956C16.7248 35.9365 16.6875 35.706 16.7354 35.4012C16.7969 35.0135 16.8337 34.6215 16.8721 34.2108C16.8883 34.0381 16.9048 33.8621 16.9236 33.6817L16.9243 33.681Z" fill="white"/>
<path d="M12.0392 34.2568C12.0271 34.0794 12.0149 33.9005 12.0015 33.7198V33.7205C11.4658 33.804 10.9803 34.2954 10.859 34.8808C10.7724 35.2994 10.8421 35.677 11.1388 35.9923C11.3404 36.2066 11.592 36.2278 11.8478 36.104C12.0839 35.9895 12.1692 35.7993 12.141 35.5257C12.0972 35.1067 12.0684 34.6856 12.0392 34.2568Z" fill="white"/>
<path d="M18.374 32.9859C18.7264 32.9711 19.0914 33.0969 19.3226 33.4625C19.5601 33.8365 19.6299 34.2509 19.4036 34.6624C19.2007 35.0315 18.7637 35.1509 18.4508 34.9056C18.3472 34.8243 18.2718 34.6376 18.2746 34.5012C18.2822 34.1536 18.3098 33.8067 18.3394 33.4351C18.351 33.2897 18.3629 33.1405 18.374 32.9859Z" fill="white"/>
<path d="M10.5986 33.4752C10.5873 33.3327 10.5759 33.1878 10.5652 33.0397H10.5659C9.9175 32.988 9.37483 33.5162 9.40514 34.2452C9.41853 34.5598 9.53763 34.8575 9.83927 34.9494C10.0437 35.0117 10.3058 34.9438 10.5236 34.8745C10.6018 34.8497 10.6709 34.6503 10.6667 34.533C10.6545 34.1849 10.6271 33.8375 10.5986 33.4752Z" fill="white"/>
</svg>
