<svg width="1585" height="1701" viewBox="0 0 1585 1701" fill="none" xmlns="http://www.w3.org/2000/svg">
<g filter="url(#filter0_dddf_2_94)">
<path d="M813.56 1325.21L813.611 1325.25L816.071 1321.73L913.733 1181.95L962.564 1112.06L1011.4 1042.18L1060.23 972.288L1109.06 902.399L1206.72 762.623L1209.18 759.103L1209.13 759.067C1208.34 760.262 1207.54 761.448 1206.72 762.623C1100.9 914.072 732.014 839.854 375.879 597.937L375.689 598.209C725.33 849.42 921.889 1170.28 816.071 1321.73C815.25 1322.9 814.413 1324.07 813.56 1325.21Z" fill="url(#paint0_radial_2_94)"/>
<path d="M813.56 1325.21L813.611 1325.25L816.071 1321.73L913.733 1181.95L962.564 1112.06L1011.4 1042.18L1060.23 972.288L1109.06 902.399L1206.72 762.623L1209.18 759.103L1209.13 759.067C1208.34 760.262 1207.54 761.448 1206.72 762.623C1100.9 914.072 732.014 839.854 375.879 597.937L375.689 598.209C725.33 849.42 921.889 1170.28 816.071 1321.73C815.25 1322.9 814.413 1324.07 813.56 1325.21Z" fill="url(#paint1_radial_2_94)"/>
<path d="M813.56 1325.21L813.611 1325.25L816.071 1321.73L913.733 1181.95L962.564 1112.06L1011.4 1042.18L1060.23 972.288L1109.06 902.399L1206.72 762.623L1209.18 759.103L1209.13 759.067C1208.34 760.262 1207.54 761.448 1206.72 762.623C1100.9 914.072 732.014 839.854 375.879 597.937L375.689 598.209C725.33 849.42 921.889 1170.28 816.071 1321.73C815.25 1322.9 814.413 1324.07 813.56 1325.21Z" fill="url(#paint2_linear_2_94)"/>
<path d="M767.573 996.833C692.594 873.891 567.22 739.959 407.021 619.899C574.853 729.035 743.734 800.699 884.963 828.822C960.029 843.77 1027.33 846.427 1082.54 835.834C1127.78 827.153 1164.94 809.56 1191.55 782.499L1108.2 901.798L1059.37 971.686L1010.53 1041.57L961.703 1111.46L912.872 1181.35L829.518 1300.65C845.776 1266.36 849.515 1225.41 842.108 1179.94C833.069 1124.46 807.426 1062.18 767.573 996.833Z" stroke="white" stroke-opacity="0.1" stroke-width="2.1"/>
</g>
<defs>
<filter id="filter0_dddf_2_94" x="0.688995" y="0.937424" width="1583.49" height="1699.31" filterUnits="userSpaceOnUse" color-interpolation-filters="sRGB">
<feFlood flood-opacity="0" result="BackgroundImageFix"/>
<feColorMatrix in="SourceAlpha" type="matrix" values="0 0 0 0 0 0 0 0 0 0 0 0 0 0 0 0 0 0 127 0" result="hardAlpha"/>
<feOffset/>
<feGaussianBlur stdDeviation="187.5"/>
<feComposite in2="hardAlpha" operator="out"/>
<feColorMatrix type="matrix" values="0 0 0 0 0.333333 0 0 0 0 0.76 0 0 0 0 1 0 0 0 1 0"/>
<feBlend mode="normal" in2="BackgroundImageFix" result="effect1_dropShadow_2_94"/>
<feColorMatrix in="SourceAlpha" type="matrix" values="0 0 0 0 0 0 0 0 0 0 0 0 0 0 0 0 0 0 127 0" result="hardAlpha"/>
<feOffset dy="-222"/>
<feGaussianBlur stdDeviation="187.5"/>
<feComposite in2="hardAlpha" operator="out"/>
<feColorMatrix type="matrix" values="0 0 0 0 0.662745 0 0 0 0 0.941176 0 0 0 0 0.219608 0 0 0 1 0"/>
<feBlend mode="normal" in2="effect1_dropShadow_2_94" result="effect2_dropShadow_2_94"/>
<feColorMatrix in="SourceAlpha" type="matrix" values="0 0 0 0 0 0 0 0 0 0 0 0 0 0 0 0 0 0 127 0" result="hardAlpha"/>
<feOffset dy="4"/>
<feGaussianBlur stdDeviation="2"/>
<feComposite in2="hardAlpha" operator="out"/>
<feColorMatrix type="matrix" values="0 0 0 0 0 0 0 0 0 0 0 0 0 0 0 0 0 0 0.25 0"/>
<feBlend mode="normal" in2="effect2_dropShadow_2_94" result="effect3_dropShadow_2_94"/>
<feBlend mode="normal" in="SourceGraphic" in2="effect3_dropShadow_2_94" result="shape"/>
<feGaussianBlur stdDeviation="100" result="effect4_foregroundBlur_2_94"/>
</filter>
<radialGradient id="paint0_radial_2_94" cx="0" cy="0" r="1" gradientUnits="userSpaceOnUse" gradientTransform="translate(1011.4 1042.18) rotate(-145.058) scale(775.39 902.437)">
<stop stop-color="#007181"/>
<stop offset="0.484375" stop-color="#044C75"/>
<stop offset="1" stop-color="#095D68"/>
</radialGradient>
<radialGradient id="paint1_radial_2_94" cx="0" cy="0" r="1" gradientUnits="userSpaceOnUse" gradientTransform="translate(1011.4 1042.18) rotate(-55.0579) scale(163.633 487.313)">
<stop stop-color="#B5E4FF"/>
<stop offset="0.65625" stop-color="#5FFFA9" stop-opacity="0.494792"/>
<stop offset="1" stop-color="#1464FF" stop-opacity="0"/>
</radialGradient>
<linearGradient id="paint2_linear_2_94" x1="375.87" y1="597.95" x2="956.548" y2="1003.67" gradientUnits="userSpaceOnUse">
<stop stop-color="#A6C4FF"/>
<stop offset="0.6875" stop-color="#DDFFBB" stop-opacity="0.71"/>
<stop offset="1" stop-color="#CDFFA6" stop-opacity="0"/>
</linearGradient>
</defs>
</svg>
