<svg width="44" height="40" viewBox="0 0 44 40" fill="none" xmlns="http://www.w3.org/2000/svg">
<path d="M2.21846 12.4304L0 10.2063V8.53407H3.13672V8.91559L3.51866 9.29711H10.7889L11.1709 8.91559V8.15797L9.77314 6.66167V5.75522L11.1709 4.26163V0H14.3076V5.56041L13.6575 6.2098L14.3076 6.85919V12.4304H2.21846Z" fill="white"/>
<path d="M23.3494 8.84456L21.865 10.2418H20.963L19.4786 8.84456H18.7716V12.4304H15.6619V2.21592L17.8669 0H24.9692L27.1687 2.21592V12.4304H24.059V8.84456H23.3494ZM20.7706 5.71172L21.4153 6.36121L22.06 5.71172H24.0563V3.5149L23.6771 3.13285H19.1562L18.777 3.5149V5.71172H20.7733H20.7706Z" fill="white"/>
<path d="M30.7415 12.4304L28.5231 10.2063V8.53407H31.6598V8.91559L32.0417 9.29711H39.312L39.6939 8.91559V8.15797L38.2962 6.66167V5.75522L39.6939 4.26163V0H42.8306V5.56041L42.1805 6.2098L42.8306 6.85919V12.4304H30.7415Z" fill="white"/>
<path d="M7.6847 22.6294L6.20031 24.0266H5.2983L3.81391 22.6294H3.10693V26.2152H0V16.0007L2.1995 13.7848H9.30182L11.5013 16.0007V26.2152H8.39168V22.6294H7.6847ZM5.10598 19.4965L5.75066 20.146L6.39534 19.4965H8.39168V17.2997L8.01246 16.9176H3.48886L3.10964 17.2997V19.4965H5.10598Z" fill="white"/>
<path d="M15.987 18.0456L17.3847 19.549V20.4483L15.987 21.9435V26.2152H12.8557V20.646L13.5058 19.9959L12.8557 19.3458V16.0005L15.0714 13.7848H21.5833L23.799 16.0005V22.6993L24.1809 23.0812H26.8734L27.2554 22.6993V13.7848H30.3867V23.9913L28.1709 26.2152H22.8807L20.665 23.9913V17.3007L20.2831 16.9188H16.3689L15.987 17.3007V18.0484V18.0456Z" fill="white"/>
<path d="M38.3856 21.5626H35.2272L34.8723 21.9445V26.2152H31.741V20.6472L32.3911 19.9973L31.741 19.3473V13.7875H34.8723V18.0474L35.2272 18.4293H36.0181V16.0001L38.242 13.7848H43.3236V16.9154H39.5341L39.1522 17.2973V18.4266H39.6858L41.9015 20.6418V22.6973L42.2835 23.0792H43.3236V26.2098H40.9833L38.7675 23.9864V21.9417L38.3856 21.5599V21.5626Z" fill="white"/>
<path d="M12.5713 27.5696L14.7058 29.7857V31.4674H11.6909V31.085L11.3225 30.7025H3.38593L3.01754 31.085V31.833L3.36155 32.2155H10.751V35.3456H3.35884L3.01483 35.7281V36.4846L3.38322 36.8671H11.3198L11.6882 36.4846V36.1021H14.7031V37.7755L12.5686 40H0V34.4316L0.625719 33.782L0 33.1323V27.5724H12.5713V27.5696Z" fill="white"/>
<path d="M19.1914 31.8304L20.5891 33.3338V34.2331L19.1914 35.7283V40H16.0601V34.4308L16.7102 33.7807L16.0601 33.1306V29.7853L18.2759 27.5696H24.7877L27.0035 29.7853V36.4841L27.3854 36.866H30.0779L30.4598 36.4841V27.5696H33.5911V37.7761L31.3754 40H26.0852L23.8694 37.7761V31.0855L23.4875 30.7036H19.5734L19.1914 31.0855V31.8331V31.8304Z" fill="white"/>
<path d="M42.4812 38.1039H35.4845L34.9455 38.5996V40H41.9855L42.4812 39.5476V38.1039Z" fill="white"/>
</svg>
